{
	"asset":{
		"generator":"Khronos glTF Blender I/O v5.2.39",
		"version":"2.0"
	},
	"extensionsUsed":[
		"KHR_materials_emissive_strength"
	],
	"scene":0,
	"scenes":[
		{
			"name":"Scene",
			"nodes":[
				13
			]
		}
	],
	"nodes":[
		{
			"mesh":0,
			"name":"SmudgeStick_Ember",
			"scale":[
				1,
				0.4000000059604645,
				1
			],
			"translation":[
				0,
				0.8730000257492065,
				0
			]
		},
		{
			"mesh":1,
			"name":"SmudgeStick_Stalk0",
			"rotation":[
				0.007900849916040897,
				0.0001769073132891208,
				0.02238461747765541,
				0.999718189239502
			],
			"translation":[
				0.033714983612298965,
				0.41943058371543884,
				0
			]
		},
		{
			"mesh":2,
			"name":"SmudgeStick_Stalk1",
			"rotation":[
				-0.023141056299209595,
				9.009602763399016e-06,
				-0.00038922985550016165,
				0.9997321367263794
			],
			"translation":[
				0.030700350180268288,
				0.42716479301452637,
				-0.025760652497410774
			]
		},
		{
			"mesh":3,
			"name":"SmudgeStick_Stalk2",
			"rotation":[
				-0.02251524105668068,
				-0.00048258042079396546,
				0.02142314240336418,
				0.9995168447494507
			],
			"translation":[
				0.00436288770288229,
				0.4296112358570099,
				-0.02474316582083702
			]
		},
		{
			"mesh":4,
			"name":"SmudgeStick_Stalk3",
			"rotation":[
				-0.019694343209266663,
				-0.00028541413485072553,
				0.014487859793007374,
				0.9997011423110962
			],
			"translation":[
				-0.018367787823081017,
				0.44376668334007263,
				-0.03181394189596176
			]
		},
		{
			"mesh":5,
			"name":"SmudgeStick_Stalk4",
			"rotation":[
				0.004037030506879091,
				2.1839730834471993e-05,
				0.005409727338701487,
				0.9999772310256958
			],
			"translation":[
				-0.04024045541882515,
				0.44811752438545227,
				-0.014646327123045921
			]
		},
		{
			"mesh":6,
			"name":"SmudgeStick_Stalk5",
			"rotation":[
				0.01876712590456009,
				0.00020674760162364691,
				0.011013869196176529,
				0.9997631907463074
			],
			"translation":[
				-0.0500740148127079,
				0.4156769812107086,
				0.018225450068712234
			]
		},
		{
			"mesh":7,
			"name":"SmudgeStick_Stalk6",
			"rotation":[
				-0.010026327334344387,
				0.0001659743138588965,
				-0.01655075140297413,
				0.9998127222061157
			],
			"translation":[
				-0.01416382659226656,
				0.4182405173778534,
				0.024532467126846313
			]
		},
		{
			"mesh":8,
			"name":"SmudgeStick_Stalk7",
			"rotation":[
				0.007273266091942787,
				4.859522232436575e-05,
				0.006681022234261036,
				0.9999512434005737
			],
			"translation":[
				0.005109040532261133,
				0.43493759632110596,
				0.028974808752536774
			]
		},
		{
			"mesh":9,
			"name":"SmudgeStick_Stalk8",
			"rotation":[
				-0.02305445447564125,
				-0.00035497359931468964,
				0.015391265042126179,
				0.9996157884597778
			],
			"translation":[
				0.03097296506166458,
				0.41626039147377014,
				0.025989403948187828
			]
		},
		{
			"mesh":10,
			"name":"SmudgeStick_String0",
			"translation":[
				0,
				0.13500000536441803,
				0
			]
		},
		{
			"mesh":11,
			"name":"SmudgeStick_String1",
			"translation":[
				0,
				0.3149999976158142,
				0
			]
		},
		{
			"mesh":12,
			"name":"SmudgeStick_String2",
			"translation":[
				0,
				0.4950000047683716,
				0
			]
		},
		{
			"children":[
				0,
				1,
				2,
				3,
				4,
				5,
				6,
				7,
				8,
				9,
				10,
				11,
				12
			],
			"name":"SmudgeStick"
		}
	],
	"animations":[
		{
			"channels":[
				{
					"sampler":0,
					"target":{
						"node":13,
						"path":"scale"
					}
				}
			],
			"name":"Burn",
			"samplers":[
				{
					"input":42,
					"interpolation":"LINEAR",
					"output":43
				}
			]
		}
	],
	"materials":[
		{
			"doubleSided":true,
			"emissiveFactor":[
				1,
				0.3499999940395355,
				0.05000000074505806
			],
			"extensions":{
				"KHR_materials_emissive_strength":{
					"emissiveStrength":2.5
				}
			},
			"name":"Smudge_Ember",
			"pbrMetallicRoughness":{
				"baseColorFactor":[
					1,
					0.3499999940395355,
					0.05000000074505806,
					1
				],
				"metallicFactor":0,
				"roughnessFactor":0.30000001192092896
			}
		},
		{
			"doubleSided":true,
			"name":"Smudge_Leaf",
			"pbrMetallicRoughness":{
				"baseColorFactor":[
					0.3199999928474426,
					0.25999999046325684,
					0.09000000357627869,
					1
				],
				"metallicFactor":0,
				"roughnessFactor":0.8500000238418579
			}
		},
		{
			"doubleSided":true,
			"name":"Smudge_Leaf2",
			"pbrMetallicRoughness":{
				"baseColorFactor":[
					0.4000000059604645,
					0.33000001311302185,
					0.11999999731779099,
					1
				],
				"metallicFactor":0,
				"roughnessFactor":0.8500000238418579
			}
		},
		{
			"doubleSided":true,
			"name":"Smudge_String",
			"pbrMetallicRoughness":{
				"baseColorFactor":[
					0.550000011920929,
					0.44999998807907104,
					0.20000000298023224,
					1
				],
				"metallicFactor":0,
				"roughnessFactor":0.6000000238418579
			}
		}
	],
	"meshes":[
		{
			"name":"\u7403.001",
			"primitives":[
				{
					"attributes":{
						"POSITION":0,
						"NORMAL":1,
						"TEXCOORD_0":2
					},
					"indices":3,
					"material":0
				}
			]
		},
		{
			"name":"\u5186\u67f1.003",
			"primitives":[
				{
					"attributes":{
						"POSITION":4,
						"NORMAL":5,
						"TEXCOORD_0":6
					},
					"indices":7,
					"material":1
				}
			]
		},
		{
			"name":"\u5186\u67f1.004",
			"primitives":[
				{
					"attributes":{
						"POSITION":8,
						"NORMAL":9,
						"TEXCOORD_0":10
					},
					"indices":7,
					"material":2
				}
			]
		},
		{
			"name":"\u5186\u67f1.005",
			"primitives":[
				{
					"attributes":{
						"POSITION":11,
						"NORMAL":12,
						"TEXCOORD_0":13
					},
					"indices":7,
					"material":1
				}
			]
		},
		{
			"name":"\u5186\u67f1.006",
			"primitives":[
				{
					"attributes":{
						"POSITION":14,
						"NORMAL":15,
						"TEXCOORD_0":16
					},
					"indices":7,
					"material":2
				}
			]
		},
		{
			"name":"\u5186\u67f1.007",
			"primitives":[
				{
					"attributes":{
						"POSITION":17,
						"NORMAL":18,
						"TEXCOORD_0":19
					},
					"indices":7,
					"material":1
				}
			]
		},
		{
			"name":"\u5186\u67f1.008",
			"primitives":[
				{
					"attributes":{
						"POSITION":20,
						"NORMAL":21,
						"TEXCOORD_0":22
					},
					"indices":7,
					"material":2
				}
			]
		},
		{
			"name":"\u5186\u67f1.009",
			"primitives":[
				{
					"attributes":{
						"POSITION":23,
						"NORMAL":24,
						"TEXCOORD_0":25
					},
					"indices":7,
					"material":1
				}
			]
		},
		{
			"name":"\u5186\u67f1.010",
			"primitives":[
				{
					"attributes":{
						"POSITION":26,
						"NORMAL":27,
						"TEXCOORD_0":28
					},
					"indices":7,
					"material":2
				}
			]
		},
		{
			"name":"\u5186\u67f1.011",
			"primitives":[
				{
					"attributes":{
						"POSITION":29,
						"NORMAL":30,
						"TEXCOORD_0":31
					},
					"indices":7,
					"material":1
				}
			]
		},
		{
			"name":"\u30c8\u30fc\u30e9\u30b9",
			"primitives":[
				{
					"attributes":{
						"POSITION":32,
						"NORMAL":33,
						"TEXCOORD_0":34
					},
					"indices":35,
					"material":3
				}
			]
		},
		{
			"name":"\u30c8\u30fc\u30e9\u30b9.001",
			"primitives":[
				{
					"attributes":{
						"POSITION":36,
						"NORMAL":37,
						"TEXCOORD_0":38
					},
					"indices":35,
					"material":3
				}
			]
		},
		{
			"name":"\u30c8\u30fc\u30e9\u30b9.002",
			"primitives":[
				{
					"attributes":{
						"POSITION":39,
						"NORMAL":40,
						"TEXCOORD_0":41
					},
					"indices":35,
					"material":3
				}
			]
		}
	],
	"accessors":[
		{
			"bufferView":0,
			"componentType":5126,
			"count":220,
			"max":[
				0.04755282402038574,
				0.05000000074505806,
				0.04999999701976776
			],
			"min":[
				-0.04755282774567604,
				-0.05000000074505806,
				-0.04999999701976776
			],
			"type":"VEC3"
		},
		{
			"bufferView":1,
			"componentType":5126,
			"count":220,
			"type":"VEC3"
		},
		{
			"bufferView":2,
			"componentType":5126,
			"count":220,
			"type":"VEC2"
		},
		{
			"bufferView":3,
			"componentType":5123,
			"count":300,
			"type":"SCALAR"
		},
		{
			"bufferView":4,
			"componentType":5126,
			"count":36,
			"max":[
				0.012124355882406235,
				0.41943058371543884,
				0.014000000432133675
			],
			"min":[
				-0.012124355882406235,
				-0.41943058371543884,
				-0.014000000432133675
			],
			"type":"VEC3"
		},
		{
			"bufferView":5,
			"componentType":5126,
			"count":36,
			"type":"VEC3"
		},
		{
			"bufferView":6,
			"componentType":5126,
			"count":36,
			"type":"VEC2"
		},
		{
			"bufferView":7,
			"componentType":5123,
			"count":60,
			"type":"SCALAR"
		},
		{
			"bufferView":8,
			"componentType":5126,
			"count":36,
			"max":[
				0.012124355882406235,
				0.42716479301452637,
				0.014000000432133675
			],
			"min":[
				-0.012124355882406235,
				-0.42716479301452637,
				-0.014000000432133675
			],
			"type":"VEC3"
		},
		{
			"bufferView":9,
			"componentType":5126,
			"count":36,
			"type":"VEC3"
		},
		{
			"bufferView":10,
			"componentType":5126,
			"count":36,
			"type":"VEC2"
		},
		{
			"bufferView":11,
			"componentType":5126,
			"count":36,
			"max":[
				0.012124355882406235,
				0.4296112358570099,
				0.014000000432133675
			],
			"min":[
				-0.012124355882406235,
				-0.4296112358570099,
				-0.014000000432133675
			],
			"type":"VEC3"
		},
		{
			"bufferView":12,
			"componentType":5126,
			"count":36,
			"type":"VEC3"
		},
		{
			"bufferView":13,
			"componentType":5126,
			"count":36,
			"type":"VEC2"
		},
		{
			"bufferView":14,
			"componentType":5126,
			"count":36,
			"max":[
				0.012124355882406235,
				0.44376668334007263,
				0.014000000432133675
			],
			"min":[
				-0.012124355882406235,
				-0.44376668334007263,
				-0.014000000432133675
			],
			"type":"VEC3"
		},
		{
			"bufferView":15,
			"componentType":5126,
			"count":36,
			"type":"VEC3"
		},
		{
			"bufferView":16,
			"componentType":5126,
			"count":36,
			"type":"VEC2"
		},
		{
			"bufferView":17,
			"componentType":5126,
			"count":36,
			"max":[
				0.012124355882406235,
				0.44811752438545227,
				0.014000000432133675
			],
			"min":[
				-0.012124355882406235,
				-0.44811752438545227,
				-0.014000000432133675
			],
			"type":"VEC3"
		},
		{
			"bufferView":18,
			"componentType":5126,
			"count":36,
			"type":"VEC3"
		},
		{
			"bufferView":19,
			"componentType":5126,
			"count":36,
			"type":"VEC2"
		},
		{
			"bufferView":20,
			"componentType":5126,
			"count":36,
			"max":[
				0.012124355882406235,
				0.4156769812107086,
				0.014000000432133675
			],
			"min":[
				-0.012124355882406235,
				-0.4156769812107086,
				-0.014000000432133675
			],
			"type":"VEC3"
		},
		{
			"bufferView":21,
			"componentType":5126,
			"count":36,
			"type":"VEC3"
		},
		{
			"bufferView":22,
			"componentType":5126,
			"count":36,
			"type":"VEC2"
		},
		{
			"bufferView":23,
			"componentType":5126,
			"count":36,
			"max":[
				0.012124355882406235,
				0.4182405173778534,
				0.014000000432133675
			],
			"min":[
				-0.012124355882406235,
				-0.4182405173778534,
				-0.014000000432133675
			],
			"type":"VEC3"
		},
		{
			"bufferView":24,
			"componentType":5126,
			"count":36,
			"type":"VEC3"
		},
		{
			"bufferView":25,
			"componentType":5126,
			"count":36,
			"type":"VEC2"
		},
		{
			"bufferView":26,
			"componentType":5126,
			"count":36,
			"max":[
				0.012124355882406235,
				0.43493759632110596,
				0.014000000432133675
			],
			"min":[
				-0.012124355882406235,
				-0.43493759632110596,
				-0.014000000432133675
			],
			"type":"VEC3"
		},
		{
			"bufferView":27,
			"componentType":5126,
			"count":36,
			"type":"VEC3"
		},
		{
			"bufferView":28,
			"componentType":5126,
			"count":36,
			"type":"VEC2"
		},
		{
			"bufferView":29,
			"componentType":5126,
			"count":36,
			"max":[
				0.012124355882406235,
				0.41626039147377014,
				0.014000000432133675
			],
			"min":[
				-0.012124355882406235,
				-0.41626039147377014,
				-0.014000000432133675
			],
			"type":"VEC3"
		},
		{
			"bufferView":30,
			"componentType":5126,
			"count":36,
			"type":"VEC3"
		},
		{
			"bufferView":31,
			"componentType":5126,
			"count":36,
			"type":"VEC2"
		},
		{
			"bufferView":32,
			"componentType":5126,
			"count":324,
			"max":[
				0.06700000166893005,
				0.008660254068672657,
				0.06700000166893005
			],
			"min":[
				-0.06700000166893005,
				-0.008660254068672657,
				-0.06700000166893005
			],
			"type":"VEC3"
		},
		{
			"bufferView":33,
			"componentType":5126,
			"count":324,
			"type":"VEC3"
		},
		{
			"bufferView":34,
			"componentType":5126,
			"count":324,
			"type":"VEC2"
		},
		{
			"bufferView":35,
			"componentType":5123,
			"count":576,
			"type":"SCALAR"
		},
		{
			"bufferView":36,
			"componentType":5126,
			"count":324,
			"max":[
				0.06700000166893005,
				0.008660254068672657,
				0.06700000166893005
			],
			"min":[
				-0.06700000166893005,
				-0.008660254068672657,
				-0.06700000166893005
			],
			"type":"VEC3"
		},
		{
			"bufferView":37,
			"componentType":5126,
			"count":324,
			"type":"VEC3"
		},
		{
			"bufferView":38,
			"componentType":5126,
			"count":324,
			"type":"VEC2"
		},
		{
			"bufferView":39,
			"componentType":5126,
			"count":324,
			"max":[
				0.06700000166893005,
				0.008660254068672657,
				0.06700000166893005
			],
			"min":[
				-0.06700000166893005,
				-0.008660254068672657,
				-0.06700000166893005
			],
			"type":"VEC3"
		},
		{
			"bufferView":40,
			"componentType":5126,
			"count":324,
			"type":"VEC3"
		},
		{
			"bufferView":41,
			"componentType":5126,
			"count":324,
			"type":"VEC2"
		},
		{
			"bufferView":42,
			"componentType":5126,
			"count":45,
			"max":[
				1.875
			],
			"min":[
				0.041666666666666664
			],
			"type":"SCALAR"
		},
		{
			"bufferView":43,
			"componentType":5126,
			"count":45,
			"type":"VEC3"
		}
	],
	"bufferViews":[
		{
			"buffer":0,
			"byteLength":2640,
			"byteOffset":0,
			"target":34962
		},
		{
			"buffer":0,
			"byteLength":2640,
			"byteOffset":2640,
			"target":34962
		},
		{
			"buffer":0,
			"byteLength":1760,
			"byteOffset":5280,
			"target":34962
		},
		{
			"buffer":0,
			"byteLength":600,
			"byteOffset":7040,
			"target":34963
		},
		{
			"buffer":0,
			"byteLength":432,
			"byteOffset":7640,
			"target":34962
		},
		{
			"buffer":0,
			"byteLength":432,
			"byteOffset":8072,
			"target":34962
		},
		{
			"buffer":0,
			"byteLength":288,
			"byteOffset":8504,
			"target":34962
		},
		{
			"buffer":0,
			"byteLength":120,
			"byteOffset":8792,
			"target":34963
		},
		{
			"buffer":0,
			"byteLength":432,
			"byteOffset":8912,
			"target":34962
		},
		{
			"buffer":0,
			"byteLength":432,
			"byteOffset":9344,
			"target":34962
		},
		{
			"buffer":0,
			"byteLength":288,
			"byteOffset":9776,
			"target":34962
		},
		{
			"buffer":0,
			"byteLength":432,
			"byteOffset":10064,
			"target":34962
		},
		{
			"buffer":0,
			"byteLength":432,
			"byteOffset":10496,
			"target":34962
		},
		{
			"buffer":0,
			"byteLength":288,
			"byteOffset":10928,
			"target":34962
		},
		{
			"buffer":0,
			"byteLength":432,
			"byteOffset":11216,
			"target":34962
		},
		{
			"buffer":0,
			"byteLength":432,
			"byteOffset":11648,
			"target":34962
		},
		{
			"buffer":0,
			"byteLength":288,
			"byteOffset":12080,
			"target":34962
		},
		{
			"buffer":0,
			"byteLength":432,
			"byteOffset":12368,
			"target":34962
		},
		{
			"buffer":0,
			"byteLength":432,
			"byteOffset":12800,
			"target":34962
		},
		{
			"buffer":0,
			"byteLength":288,
			"byteOffset":13232,
			"target":34962
		},
		{
			"buffer":0,
			"byteLength":432,
			"byteOffset":13520,
			"target":34962
		},
		{
			"buffer":0,
			"byteLength":432,
			"byteOffset":13952,
			"target":34962
		},
		{
			"buffer":0,
			"byteLength":288,
			"byteOffset":14384,
			"target":34962
		},
		{
			"buffer":0,
			"byteLength":432,
			"byteOffset":14672,
			"target":34962
		},
		{
			"buffer":0,
			"byteLength":432,
			"byteOffset":15104,
			"target":34962
		},
		{
			"buffer":0,
			"byteLength":288,
			"byteOffset":15536,
			"target":34962
		},
		{
			"buffer":0,
			"byteLength":432,
			"byteOffset":15824,
			"target":34962
		},
		{
			"buffer":0,
			"byteLength":432,
			"byteOffset":16256,
			"target":34962
		},
		{
			"buffer":0,
			"byteLength":288,
			"byteOffset":16688,
			"target":34962
		},
		{
			"buffer":0,
			"byteLength":432,
			"byteOffset":16976,
			"target":34962
		},
		{
			"buffer":0,
			"byteLength":432,
			"byteOffset":17408,
			"target":34962
		},
		{
			"buffer":0,
			"byteLength":288,
			"byteOffset":17840,
			"target":34962
		},
		{
			"buffer":0,
			"byteLength":3888,
			"byteOffset":18128,
			"target":34962
		},
		{
			"buffer":0,
			"byteLength":3888,
			"byteOffset":22016,
			"target":34962
		},
		{
			"buffer":0,
			"byteLength":2592,
			"byteOffset":25904,
			"target":34962
		},
		{
			"buffer":0,
			"byteLength":1152,
			"byteOffset":28496,
			"target":34963
		},
		{
			"buffer":0,
			"byteLength":3888,
			"byteOffset":29648,
			"target":34962
		},
		{
			"buffer":0,
			"byteLength":3888,
			"byteOffset":33536,
			"target":34962
		},
		{
			"buffer":0,
			"byteLength":2592,
			"byteOffset":37424,
			"target":34962
		},
		{
			"buffer":0,
			"byteLength":3888,
			"byteOffset":40016,
			"target":34962
		},
		{
			"buffer":0,
			"byteLength":3888,
			"byteOffset":43904,
			"target":34962
		},
		{
			"buffer":0,
			"byteLength":2592,
			"byteOffset":47792,
			"target":34962
		},
		{
			"buffer":0,
			"byteLength":180,
			"byteOffset":50384
		},
		{
			"buffer":0,
			"byteLength":540,
			"byteOffset":50564
		}
	],
	"buffers":[
		{
			"byteLength":51104,
			"uri":"SmudgeStick.bin"
		}
	]
}
