{
	"asset":{
		"generator":"Khronos glTF Blender I/O v5.2.39",
		"version":"2.0"
	},
	"extensionsUsed":[
		"KHR_materials_emissive_strength",
		"KHR_materials_specular"
	],
	"scene":0,
	"scenes":[
		{
			"name":"Scene",
			"nodes":[
				18
			]
		}
	],
	"nodes":[
		{
			"mesh":0,
			"name":"Object_13",
			"translation":[
				-2495.14208984375,
				-1634.53125,
				-339.40625
			]
		},
		{
			"children":[
				0
			],
			"name":"Cylinder.002_5",
			"translation":[
				-3014.530517578125,
				-1632.015625,
				-327.296875
			]
		},
		{
			"mesh":1,
			"name":"mesh_4",
			"translation":[
				3610.038818359375,
				-1744.08203125,
				-54.09375
			]
		},
		{
			"children":[
				2
			],
			"name":"Sphere.003_6",
			"rotation":[
				5.355628672987223e-06,
				0.07869482040405273,
				-0.0008523677824996412,
				0.9968984127044678
			],
			"translation":[
				-3014.530517578125,
				-1632.015625,
				-327.296875
			]
		},
		{
			"mesh":2,
			"name":"Object_17",
			"translation":[
				3670.9453125,
				-5848.078125,
				-391.1875
			]
		},
		{
			"children":[
				4
			],
			"name":"Sphere.004_7",
			"rotation":[
				5.35563231096603e-06,
				0.07869483530521393,
				-0.000852367898914963,
				0.9968984127044678
			],
			"translation":[
				-3014.530517578125,
				-1632.015625,
				-327.296875
			]
		},
		{
			"children":[
				1,
				3,
				5
			],
			"name":"Thermometer.002_8",
			"rotation":[
				-3.284542572146165e-06,
				-0.004045526031404734,
				4.135873314226046e-05,
				0.9999918341636658
			],
			"scale":[
				1.050102949142456,
				1.0501033067703247,
				1.0501030683517456
			],
			"translation":[
				3524.633056640625,
				-3313.28515625,
				-291.03125
			]
		},
		{
			"children":[
				6
			],
			"name":"Thermometer.001_9",
			"rotation":[
				-0.044007156044244766,
				0.005414779298007488,
				0.999016523361206,
				0.00020184650202281773
			],
			"scale":[
				9.999998745735539e-11,
				1.000000013351432e-10,
				1.000000013351432e-10
			],
			"translation":[
				2.4151275157928467,
				4.18342924118042,
				0.23228071630001068
			]
		},
		{
			"mesh":3,
			"name":"Object_5",
			"translation":[
				-0.00010008269600803033,
				-0.00020861206576228142,
				1.527991844341159e-05
			]
		},
		{
			"children":[
				8
			],
			"name":"Cylinder.003_0",
			"translation":[
				0.21620802581310272,
				1.854771614074707,
				-0.757125735282898
			]
		},
		{
			"mesh":4,
			"name":"Object_7",
			"translation":[
				0.00010303437011316419,
				-0.0006509143859148026,
				0.00020221620798110962
			]
		},
		{
			"children":[
				10
			],
			"name":"Sphere.002_2",
			"rotation":[
				5.3545959417533595e-06,
				0.07869484275579453,
				-0.0008523680153302848,
				0.9968984127044678
			],
			"translation":[
				0.07229910790920258,
				-6.027941703796387,
				0.012645736336708069
			]
		},
		{
			"mesh":5,
			"name":"mesh_2",
			"translation":[
				0.00010303437011316419,
				-0.0006509143859148026,
				0.00020221620798110962
			]
		},
		{
			"children":[
				12
			],
			"name":"Sphere.005_3",
			"rotation":[
				5.3545959417533595e-06,
				0.07869484275579453,
				-0.0008523680153302848,
				0.9968984127044678
			],
			"translation":[
				0.07229910790920258,
				-6.027941703796387,
				0.012645736336708069
			]
		},
		{
			"children":[
				9,
				11,
				13
			],
			"name":"Thermometer_4",
			"rotation":[
				-0.08666069060564041,
				0.005397993605583906,
				0.9962232708930969,
				0.0004354194097686559
			],
			"scale":[
				0.0009607661049813032,
				0.0009607680258341134,
				0.0009607672691345215
			],
			"translation":[
				3.0153963565826416,
				4.183475494384766,
				0.2322845160961151
			]
		},
		{
			"children":[
				7,
				14
			],
			"name":"GLTF_SceneRootNode",
			"rotation":[
				0.70710688829422,
				0,
				0,
				0.7071066498756409
			]
		},
		{
			"children":[
				15
			],
			"name":"root"
		},
		{
			"children":[
				16
			],
			"name":"Sketchfab_model.002",
			"rotation":[
				-0.5000002384185791,
				0.4999999403953552,
				-0.4999999403953552,
				0.4999999403953552
			],
			"scale":[
				0.41462188959121704,
				0.41462188959121704,
				0.41462188959121704
			],
			"translation":[
				-1.7338000535964966,
				1.2512999773025513,
				-0.0961500033736229
			]
		},
		{
			"children":[
				17
			],
			"name":"Thermometer_Grip"
		}
	],
	"animations":[
		{
			"channels":[
				{
					"sampler":0,
					"target":{
						"node":7,
						"path":"translation"
					}
				},
				{
					"sampler":1,
					"target":{
						"node":7,
						"path":"rotation"
					}
				},
				{
					"sampler":2,
					"target":{
						"node":7,
						"path":"scale"
					}
				},
				{
					"sampler":3,
					"target":{
						"node":2,
						"path":"weights"
					}
				},
				{
					"sampler":4,
					"target":{
						"node":14,
						"path":"translation"
					}
				},
				{
					"sampler":5,
					"target":{
						"node":14,
						"path":"rotation"
					}
				},
				{
					"sampler":6,
					"target":{
						"node":14,
						"path":"scale"
					}
				}
			],
			"name":"Animation",
			"samplers":[
				{
					"input":21,
					"interpolation":"LINEAR",
					"output":22
				},
				{
					"input":23,
					"interpolation":"LINEAR",
					"output":24
				},
				{
					"input":21,
					"interpolation":"LINEAR",
					"output":25
				},
				{
					"input":21,
					"interpolation":"LINEAR",
					"output":26
				},
				{
					"input":21,
					"interpolation":"LINEAR",
					"output":27
				},
				{
					"input":23,
					"interpolation":"LINEAR",
					"output":28
				},
				{
					"input":21,
					"interpolation":"LINEAR",
					"output":29
				}
			]
		}
	],
	"materials":[
		{
			"doubleSided":true,
			"extensions":{
				"KHR_materials_specular":{
					"specularFactor":0.9066694378852844
				}
			},
			"name":"Gray_white_plastic",
			"pbrMetallicRoughness":{
				"baseColorTexture":{
					"index":0
				},
				"metallicFactor":0.3398105502128601
			}
		},
		{
			"doubleSided":true,
			"name":"Thermo_Mercury.002",
			"pbrMetallicRoughness":{
				"baseColorFactor":[
					0.9022800922393799,
					0,
					0,
					1
				],
				"metallicFactor":0.48000144958496094
			}
		},
		{
			"alphaMode":"BLEND",
			"doubleSided":true,
			"name":"Window_Glass",
			"pbrMetallicRoughness":{
				"baseColorFactor":[
					1,
					1,
					1,
					0.4739062190055847
				],
				"roughnessFactor":0.6262876391410828
			}
		},
		{
			"doubleSided":true,
			"emissiveFactor":[
				1,
				0,
				0
			],
			"extensions":{
				"KHR_materials_emissive_strength":{
					"emissiveStrength":10
				},
				"KHR_materials_specular":{
					"specularFactor":0.25447696447372437
				}
			},
			"name":"Thermo_Mercury.001",
			"pbrMetallicRoughness":{
				"baseColorFactor":[
					1,
					0,
					0,
					1
				],
				"metallicFactor":0.5165730118751526
			}
		}
	],
	"meshes":[
		{
			"name":"Object_3",
			"primitives":[
				{
					"attributes":{
						"POSITION":0,
						"NORMAL":1,
						"TEXCOORD_0":2
					},
					"indices":3,
					"material":0
				}
			]
		},
		{
			"extras":{
				"targetNames":[
					"target_0"
				]
			},
			"name":"mesh_4",
			"primitives":[
				{
					"attributes":{
						"POSITION":4,
						"NORMAL":5
					},
					"indices":6,
					"material":1,
					"targets":[
						{
							"POSITION":7,
							"NORMAL":8
						}
					]
				}
			],
			"weights":[
				1
			]
		},
		{
			"name":"Object_5",
			"primitives":[
				{
					"attributes":{
						"POSITION":9,
						"NORMAL":10,
						"TEXCOORD_0":11
					},
					"indices":12,
					"material":2
				}
			]
		},
		{
			"name":"Object_0.001",
			"primitives":[
				{
					"attributes":{
						"POSITION":13,
						"NORMAL":14,
						"TEXCOORD_0":15
					},
					"indices":3,
					"material":0
				}
			]
		},
		{
			"name":"Object_1.001",
			"primitives":[
				{
					"attributes":{
						"POSITION":16,
						"NORMAL":17,
						"TEXCOORD_0":18
					},
					"indices":12,
					"material":2
				}
			]
		},
		{
			"name":"mesh_2",
			"primitives":[
				{
					"attributes":{
						"POSITION":19,
						"NORMAL":20
					},
					"indices":6,
					"material":3
				}
			]
		}
	],
	"textures":[
		{
			"sampler":0,
			"source":0
		}
	],
	"images":[
		{
			"mimeType":"image/png",
			"name":"Gray_white_plastic_baseColor",
			"uri":"Gray_white_plastic_baseColor.png"
		}
	],
	"accessors":[
		{
			"bufferView":0,
			"componentType":5126,
			"count":1032,
			"max":[
				2.6857776641845703,
				12.828824043273926,
				1.220493197441101
			],
			"min":[
				-2.686666965484619,
				-12.828824043273926,
				-1.2480735778808594
			],
			"type":"VEC3"
		},
		{
			"bufferView":1,
			"componentType":5126,
			"count":1032,
			"type":"VEC3"
		},
		{
			"bufferView":2,
			"componentType":5126,
			"count":1032,
			"type":"VEC2"
		},
		{
			"bufferView":3,
			"componentType":5123,
			"count":5634,
			"type":"SCALAR"
		},
		{
			"bufferView":4,
			"componentType":5126,
			"count":769,
			"max":[
				1.0822759866714478,
				18.079984664916992,
				0.5516605377197266
			],
			"min":[
				-1.0799643993377686,
				-1.8034861087799072,
				-0.929925799369812
			],
			"type":"VEC3"
		},
		{
			"bufferView":5,
			"componentType":5126,
			"count":769,
			"type":"VEC3"
		},
		{
			"bufferView":6,
			"componentType":5123,
			"count":4410,
			"type":"SCALAR"
		},
		{
			"componentType":5126,
			"count":769,
			"max":[
				0.016949906945228577,
				9.359391212463379,
				0
			],
			"min":[
				0,
				0,
				-0.14883235096931458
			],
			"sparse":{
				"count":288,
				"indices":{
					"bufferView":7,
					"componentType":5123
				},
				"values":{
					"bufferView":8
				}
			},
			"type":"VEC3"
		},
		{
			"bufferView":9,
			"componentType":5126,
			"count":769,
			"type":"VEC3"
		},
		{
			"bufferView":10,
			"componentType":5126,
			"count":937,
			"max":[
				1.1903876066207886,
				18.187664031982422,
				0.6257440447807312
			],
			"min":[
				-1.1880768537521362,
				-1.8176146745681763,
				-1.0040009021759033
			],
			"type":"VEC3"
		},
		{
			"bufferView":11,
			"componentType":5126,
			"count":937,
			"type":"VEC3"
		},
		{
			"bufferView":12,
			"componentType":5126,
			"count":937,
			"type":"VEC2"
		},
		{
			"bufferView":13,
			"componentType":5123,
			"count":4410,
			"type":"SCALAR"
		},
		{
			"bufferView":14,
			"componentType":5126,
			"count":1032,
			"max":[
				2.6857776641845703,
				12.828824043273926,
				1.220493197441101
			],
			"min":[
				-2.686666965484619,
				-12.828824043273926,
				-1.2480735778808594
			],
			"type":"VEC3"
		},
		{
			"bufferView":15,
			"componentType":5126,
			"count":1032,
			"type":"VEC3"
		},
		{
			"bufferView":16,
			"componentType":5126,
			"count":1032,
			"type":"VEC2"
		},
		{
			"bufferView":17,
			"componentType":5126,
			"count":937,
			"max":[
				1.1903876066207886,
				18.187664031982422,
				0.6257440447807312
			],
			"min":[
				-1.1880768537521362,
				-1.8176146745681763,
				-1.0040009021759033
			],
			"type":"VEC3"
		},
		{
			"bufferView":18,
			"componentType":5126,
			"count":937,
			"type":"VEC3"
		},
		{
			"bufferView":19,
			"componentType":5126,
			"count":937,
			"type":"VEC2"
		},
		{
			"bufferView":20,
			"componentType":5126,
			"count":769,
			"max":[
				1.0822759866714478,
				18.079984664916992,
				0.5516605377197266
			],
			"min":[
				-1.0799643993377686,
				-1.8034861087799072,
				-0.929925799369812
			],
			"type":"VEC3"
		},
		{
			"bufferView":21,
			"componentType":5126,
			"count":769,
			"type":"VEC3"
		},
		{
			"bufferView":22,
			"componentType":5126,
			"count":241,
			"max":[
				10
			],
			"min":[
				0
			],
			"type":"SCALAR"
		},
		{
			"bufferView":23,
			"componentType":5126,
			"count":241,
			"type":"VEC3"
		},
		{
			"bufferView":24,
			"componentType":5126,
			"count":2,
			"max":[
				10
			],
			"min":[
				0
			],
			"type":"SCALAR"
		},
		{
			"bufferView":25,
			"componentType":5126,
			"count":2,
			"type":"VEC4"
		},
		{
			"bufferView":26,
			"componentType":5126,
			"count":241,
			"type":"VEC3"
		},
		{
			"bufferView":27,
			"componentType":5126,
			"count":241,
			"type":"SCALAR"
		},
		{
			"bufferView":28,
			"componentType":5126,
			"count":241,
			"type":"VEC3"
		},
		{
			"bufferView":29,
			"componentType":5126,
			"count":2,
			"type":"VEC4"
		},
		{
			"bufferView":30,
			"componentType":5126,
			"count":241,
			"type":"VEC3"
		}
	],
	"bufferViews":[
		{
			"buffer":0,
			"byteLength":12384,
			"byteOffset":0,
			"target":34962
		},
		{
			"buffer":0,
			"byteLength":12384,
			"byteOffset":12384,
			"target":34962
		},
		{
			"buffer":0,
			"byteLength":8256,
			"byteOffset":24768,
			"target":34962
		},
		{
			"buffer":0,
			"byteLength":11268,
			"byteOffset":33024,
			"target":34963
		},
		{
			"buffer":0,
			"byteLength":9228,
			"byteOffset":44292,
			"target":34962
		},
		{
			"buffer":0,
			"byteLength":9228,
			"byteOffset":53520,
			"target":34962
		},
		{
			"buffer":0,
			"byteLength":8820,
			"byteOffset":62748,
			"target":34963
		},
		{
			"buffer":0,
			"byteLength":576,
			"byteOffset":71568
		},
		{
			"buffer":0,
			"byteLength":3456,
			"byteOffset":72144
		},
		{
			"buffer":0,
			"byteLength":9228,
			"byteOffset":75600,
			"target":34962
		},
		{
			"buffer":0,
			"byteLength":11244,
			"byteOffset":84828,
			"target":34962
		},
		{
			"buffer":0,
			"byteLength":11244,
			"byteOffset":96072,
			"target":34962
		},
		{
			"buffer":0,
			"byteLength":7496,
			"byteOffset":107316,
			"target":34962
		},
		{
			"buffer":0,
			"byteLength":8820,
			"byteOffset":114812,
			"target":34963
		},
		{
			"buffer":0,
			"byteLength":12384,
			"byteOffset":123632,
			"target":34962
		},
		{
			"buffer":0,
			"byteLength":12384,
			"byteOffset":136016,
			"target":34962
		},
		{
			"buffer":0,
			"byteLength":8256,
			"byteOffset":148400,
			"target":34962
		},
		{
			"buffer":0,
			"byteLength":11244,
			"byteOffset":156656,
			"target":34962
		},
		{
			"buffer":0,
			"byteLength":11244,
			"byteOffset":167900,
			"target":34962
		},
		{
			"buffer":0,
			"byteLength":7496,
			"byteOffset":179144,
			"target":34962
		},
		{
			"buffer":0,
			"byteLength":9228,
			"byteOffset":186640,
			"target":34962
		},
		{
			"buffer":0,
			"byteLength":9228,
			"byteOffset":195868,
			"target":34962
		},
		{
			"buffer":0,
			"byteLength":964,
			"byteOffset":205096
		},
		{
			"buffer":0,
			"byteLength":2892,
			"byteOffset":206060
		},
		{
			"buffer":0,
			"byteLength":8,
			"byteOffset":208952
		},
		{
			"buffer":0,
			"byteLength":32,
			"byteOffset":208960
		},
		{
			"buffer":0,
			"byteLength":2892,
			"byteOffset":208992
		},
		{
			"buffer":0,
			"byteLength":964,
			"byteOffset":211884
		},
		{
			"buffer":0,
			"byteLength":2892,
			"byteOffset":212848
		},
		{
			"buffer":0,
			"byteLength":32,
			"byteOffset":215740
		},
		{
			"buffer":0,
			"byteLength":2892,
			"byteOffset":215772
		}
	],
	"samplers":[
		{
			"magFilter":9729,
			"minFilter":9987
		}
	],
	"buffers":[
		{
			"byteLength":218664,
			"uri":"Thermometer.bin"
		}
	]
}
