{
	"asset":{
		"generator":"Khronos glTF Blender I/O v5.2.39",
		"version":"2.0"
	},
	"extensionsUsed":[
		"KHR_materials_transmission"
	],
	"scene":0,
	"scenes":[
		{
			"name":"Scene",
			"nodes":[
				1
			]
		}
	],
	"nodes":[
		{
			"mesh":0,
			"name":"Object_2.003",
			"rotation":[
				0,
				0.007859917357563972,
				0,
				0.9999691247940063
			],
			"translation":[
				0,
				-0.07000000029802322,
				0
			]
		},
		{
			"children":[
				0
			],
			"name":"Thermometer_Grip_Scale"
		}
	],
	"materials":[
		{
			"alphaMode":"BLEND",
			"doubleSided":true,
			"extensions":{
				"KHR_materials_transmission":{
					"transmissionFactor":1,
					"transmissionTexture":{
						"index":0
					}
				}
			},
			"name":"initialShadingGroup",
			"normalTexture":{
				"index":1
			},
			"pbrMetallicRoughness":{
				"baseColorTexture":{
					"index":2
				},
				"metallicFactor":0,
				"metallicRoughnessTexture":{
					"index":3
				}
			}
		}
	],
	"meshes":[
		{
			"name":"Object_0.002",
			"primitives":[
				{
					"attributes":{
						"POSITION":0,
						"NORMAL":1,
						"TEXCOORD_0":2
					},
					"indices":3,
					"material":0
				}
			]
		}
	],
	"textures":[
		{
			"sampler":0,
			"source":0
		},
		{
			"sampler":0,
			"source":1
		},
		{
			"sampler":0,
			"source":2
		},
		{
			"sampler":0,
			"source":3
		}
	],
	"images":[
		{
			"mimeType":"image/png",
			"name":"initialShadingGroup_transmission",
			"uri":"initialShadingGroup_transmission.png"
		},
		{
			"mimeType":"image/png",
			"name":"initialShadingGroup_normal",
			"uri":"initialShadingGroup_normal.png"
		},
		{
			"mimeType":"image/png",
			"name":"initialShadingGroup_baseColor",
			"uri":"initialShadingGroup_baseColor.png"
		},
		{
			"mimeType":"image/png",
			"name":"initialShadingGroup_metallicRoughness",
			"uri":"initialShadingGroup_metallicRoughness.png"
		}
	],
	"accessors":[
		{
			"bufferView":0,
			"componentType":5126,
			"count":441,
			"max":[
				0.002334356075152755,
				0.26600199937820435,
				0.03723440691828728
			],
			"min":[
				-0.0006455221446231008,
				0.06601518392562866,
				-0.037234507501125336
			],
			"type":"VEC3"
		},
		{
			"bufferView":1,
			"componentType":5126,
			"count":441,
			"type":"VEC3"
		},
		{
			"bufferView":2,
			"componentType":5126,
			"count":441,
			"type":"VEC2"
		},
		{
			"bufferView":3,
			"componentType":5123,
			"count":1866,
			"type":"SCALAR"
		}
	],
	"bufferViews":[
		{
			"buffer":0,
			"byteLength":5292,
			"byteOffset":0,
			"target":34962
		},
		{
			"buffer":0,
			"byteLength":5292,
			"byteOffset":5292,
			"target":34962
		},
		{
			"buffer":0,
			"byteLength":3528,
			"byteOffset":10584,
			"target":34962
		},
		{
			"buffer":0,
			"byteLength":3732,
			"byteOffset":14112,
			"target":34963
		}
	],
	"samplers":[
		{
			"magFilter":9729,
			"minFilter":9987
		}
	],
	"buffers":[
		{
			"byteLength":17844,
			"uri":"Thermometer.bin"
		}
	]
}
